<svg xmlns="http://www.w3.org/2000/svg" width="936" height="445" viewBox="0 0 936 445" role="img">
<style>
    text { font-family:'JetBrains Mono','JetBrainsMono Nerd Font','Cascadia Code','Fira Code',ui-monospace,'DejaVu Sans Mono',monospace; font-size:15.5px; font-variant-ligatures:none; white-space:pre; }
    .ttl { font-size:13px; fill:#a6adc8; }
    .cur{animation:bl 1.1s steps(1) infinite;}@keyframes bl{50%{opacity:0;}}</style>
<rect x="0.5" y="0.5" width="935" height="444" rx="12" fill="#1e1e2e" stroke="#313244"/>
<path d="M0.5 12.5 A12 12 0 0 1 12.5 0.5 H923.5 A12 12 0 0 1 935.5 12.5 V34 H0.5 Z" fill="#181825"/>
<line x1="0.5" y1="34" x2="935.5" y2="34" stroke="#313244"/>
<circle cx="22" cy="17" r="6" fill="#f38ba8"/><circle cx="42" cy="17" r="6" fill="#f9e2af"/><circle cx="62" cy="17" r="6" fill="#a6e3a1"/>
<text x="468" y="21" text-anchor="middle" class="ttl">abhinav@indra-os : ~/ventures</text>
<path d="M30,420 L30,420 L49,419 L68,419 L87,419 L106,419 L125,419 L144,419 L163,419 L182,418 L201,418 L220,418 L239,417 L259,416 L278,416 L297,415 L316,414 L335,414 L354,413 L373,412 L392,411 L411,410 L430,409 L449,407 L468,406 L487,405 L506,403 L525,402 L544,400 L563,398 L582,397 L601,395 L620,393 L639,391 L658,389 L677,387 L697,384 L716,382 L735,379 L754,377 L773,374 L792,372 L811,369 L830,366 L849,363 L868,360 L887,357 L906,354 L906,420 Z" fill="#cba6f7" fill-opacity="0.16"/><path d="M30,420 L49,419 L68,419 L87,419 L106,419 L125,419 L144,419 L163,419 L182,418 L201,418 L220,418 L239,417 L259,416 L278,416 L297,415 L316,414 L335,414 L354,413 L373,412 L392,411 L411,410 L430,409 L449,407 L468,406 L487,405 L506,403 L525,402 L544,400 L563,398 L582,397 L601,395 L620,393 L639,391 L658,389 L677,387 L697,384 L716,382 L735,379 L754,377 L773,374 L792,372 L811,369 L830,366 L849,363 L868,360 L887,357 L906,354" fill="none" stroke="#cba6f7" stroke-width="2.5" stroke-linejoin="round"/><circle cx="249" cy="417" r="3.5" fill="#89b4fa"/><circle cx="468" cy="406" r="3.5" fill="#89b4fa"/><circle cx="661" cy="388" r="3.5" fill="#89b4fa"/><circle cx="801" cy="370" r="3.5" fill="#89b4fa"/><circle cx="906" cy="354" r="3.5" fill="#89b4fa"/><text x="30" y="346" xml:space="preserve" fill="#6c7086" style="font-size:13px">compounding growth  ·  leverage ▸ distribution ▸ revenue</text>
<text x="22" y="67.5" xml:space="preserve"><tspan fill="#a6e3a1">❯ </tspan><tspan fill="#cdd6f4">./growth-engine </tspan><tspan fill="#6c7086">--status</tspan></text><text x="22" y="92.5" xml:space="preserve"><tspan fill="#45475a">──────────────────────────────────────────────────────────────────────</tspan></text><text x="22" y="117.5" xml:space="preserve"><tspan fill="#cba6f7">focus    </tspan><tspan fill="#cdd6f4">AI-native products · automation · agent systems</tspan></text><text x="22" y="142.5" xml:space="preserve"><tspan fill="#cba6f7">wedge    </tspan><tspan fill="#cdd6f4">build the tech </tspan><tspan fill="#fab387">+</tspan><tspan fill="#cdd6f4"> own the growth model</tspan><tspan fill="#6c7086">   (rare combo)</tspan></text><text x="22" y="167.5" xml:space="preserve"><tspan fill="#cba6f7">gtm      </tspan><tspan fill="#cdd6f4">product-led · founder sales · content &amp; SEO loops</tspan></text><text x="22" y="192.5" xml:space="preserve"><tspan fill="#cba6f7">funnel   </tspan><tspan fill="#89b4fa">acquire ▸ activate ▸ retain ▸ monetize ▸ refer</tspan></text><text x="22" y="217.5" xml:space="preserve"><tspan fill="#cba6f7">unit-econ</tspan><tspan fill="#cdd6f4"> CAC · LTV · payback · gross-margin · NDR</tspan></text><text x="22" y="242.5" xml:space="preserve"><tspan fill="#cba6f7">moats    </tspan><tspan fill="#cdd6f4">distribution · proprietary data · network effects</tspan></text><text x="22" y="267.5" xml:space="preserve"><tspan fill="#cba6f7">scale    </tspan><tspan fill="#cdd6f4">infra ↔ org ↔ market</tspan><tspan fill="#6c7086">   ·  systems, not just code</tspan></text><text x="22" y="292.5" xml:space="preserve"><tspan fill="#45475a">──────────────────────────────────────────────────────────────────────</tspan></text><text x="22" y="317.5" xml:space="preserve"><tspan fill="#6c7086"># thesis: </tspan><tspan fill="#94e2d5">tech leverage compounds into market leverage</tspan></text><text x="22" y="342.5" xml:space="preserve"><tspan fill="#1e1e2e"> </tspan></text><text x="22" y="367.5" xml:space="preserve"><tspan fill="#1e1e2e"> </tspan></text><text x="22" y="392.5" xml:space="preserve"><tspan fill="#1e1e2e"> </tspan></text><text x="22" y="417.5" xml:space="preserve"><tspan fill="#1e1e2e"> </tspan></text>

</svg>