<svg xmlns="http://www.w3.org/2000/svg" width="1194" height="46" viewBox="0 0 1194 46" role="img">
<style>text{font-family:'JetBrains Mono','JetBrainsMono Nerd Font','Cascadia Code','Fira Code',ui-monospace,'DejaVu Sans Mono',monospace;font-size:15.5px;white-space:pre;}</style>
<rect x="0.5" y="0.5" width="1193" height="45" rx="12" fill="#181825" stroke="#313244"/>
<rect x="12" y="8" width="111" height="30" rx="8" fill="#cba6f7"/><text x="21" y="28" xml:space="preserve" fill="#11111b">  indra-os</text><rect x="131" y="8" width="102" height="30" rx="8" fill="#313244"/><text x="140" y="28" xml:space="preserve" fill="#cdd6f4">  abhinav</text><rect x="241" y="8" width="120" height="30" rx="8" fill="#89b4fa"/><text x="250" y="28" xml:space="preserve" fill="#11111b"> 2:research</text><rect x="369" y="8" width="55" height="30" rx="8" fill="#313244"/><text x="378" y="28" xml:space="preserve" fill="#cdd6f4"> 34%</text><rect x="432" y="8" width="102" height="30" rx="8" fill="#313244"/><text x="441" y="28" xml:space="preserve" fill="#cdd6f4"> 11.2/32G</text><rect x="542" y="8" width="148" height="30" rx="8" fill="#a6e3a1"/><text x="551" y="28" xml:space="preserve" fill="#11111b">  ●●● 3 agents</text><rect x="698" y="8" width="139" height="30" rx="8" fill="#313244"/><text x="707" y="28" xml:space="preserve" fill="#cdd6f4">  claude-opus</text><rect x="845" y="8" width="64" height="30" rx="8" fill="#fab387"/><text x="854" y="28" xml:space="preserve" fill="#11111b"> main</text><rect x="918" y="8" width="83" height="30" rx="8" fill="#313244"/><text x="926" y="28" xml:space="preserve" fill="#cdd6f4">  up 6d</text><rect x="1009" y="8" width="92" height="30" rx="8" fill="#94e2d5"/><text x="1018" y="28" xml:space="preserve" fill="#11111b">  ONLINE</text><rect x="1109" y="8" width="74" height="30" rx="8" fill="#b4befe"/><text x="1118" y="28" xml:space="preserve" fill="#11111b"> 14:22</text>
</svg>