<svg xmlns="http://www.w3.org/2000/svg" width="920" height="56" viewBox="0 0 920 56" role="img">
<style>text{font-family:'JetBrains Mono','JetBrainsMono Nerd Font','Cascadia Code','Fira Code',ui-monospace,'DejaVu Sans Mono',monospace;font-size:15.5px;white-space:pre;}</style>
<rect x="0.5" y="0.5" width="919" height="55" rx="14" fill="#181825" stroke="#313244"/>
<rect x="14" y="12" width="117" height="32" rx="9" fill="#cba6f7"/><text x="26" y="34" xml:space="preserve" fill="#11111b" font-weight="600">◆ indra-os</text><rect x="141" y="12" width="29" height="32" rx="8" fill="#313244"/><text x="156" y="34" text-anchor="middle" fill="#a6adc8">1</text><rect x="176" y="12" width="29" height="32" rx="8" fill="#cba6f7"/><text x="191" y="34" text-anchor="middle" fill="#11111b">2</text><rect x="212" y="12" width="29" height="32" rx="8" fill="#313244"/><text x="226" y="34" text-anchor="middle" fill="#a6adc8">3</text><rect x="836" y="12" width="70" height="32" rx="9" fill="#b4befe"/><text x="848" y="34" xml:space="preserve" fill="#11111b" font-weight="600">14:22</text><rect x="767" y="12" width="61" height="32" rx="9" fill="#fab387"/><text x="779" y="34" xml:space="preserve" fill="#11111b" font-weight="600">main</text><rect x="634" y="12" width="126" height="32" rx="9" fill="#89b4fa"/><text x="646" y="34" xml:space="preserve" fill="#11111b" font-weight="600">claude-opus</text><rect x="510" y="12" width="117" height="32" rx="9" fill="#a6e3a1"/><text x="522" y="34" xml:space="preserve" fill="#11111b" font-weight="600">● 3 agents</text><rect x="395" y="12" width="108" height="32" rx="9" fill="#313244"/><text x="407" y="34" xml:space="preserve" fill="#cdd6f4" font-weight="600">MEM 11.2G</text><rect x="299" y="12" width="89" height="32" rx="9" fill="#313244"/><text x="311" y="34" xml:space="preserve" fill="#cdd6f4" font-weight="600">CPU 34%</text>
</svg>